<svg width="763" height="711" xmlns="http://www.w3.org/2000/svg" xmlns:xlink="http://www.w3.org/1999/xlink" xml:space="preserve" overflow="hidden"><defs><clipPath id="clip0"><rect x="165" y="258" width="763" height="711"/></clipPath></defs><g clip-path="url(#clip0)" transform="translate(-165 -258)"><path d="M286.333 258C291.672 258 296 262.328 296 267.667L296 306.333C296 311.672 291.672 316 286.333 316L180.667 316C175.328 316 171 311.672 171 306.333L171 267.667C171 262.328 175.328 258 180.667 258Z" fill="#78206E" fill-rule="evenodd"/><path d="M443.333 258C448.672 258 453 262.328 453 267.667L453 306.333C453 311.672 448.672 316 443.333 316L338.667 316C333.328 316 329 311.672 329 306.333L329 267.667C329 262.328 333.328 258 338.667 258Z" fill="#78206E" fill-rule="evenodd"/><path d="M601.333 258C606.672 258 611 262.328 611 267.667L611 306.333C611 311.672 606.672 316 601.333 316L495.667 316C490.328 316 486 311.672 486 306.333L486 267.667C486 262.328 490.328 258 495.667 258Z" fill="#78206E" fill-rule="evenodd"/><path d="M758.333 258C763.672 258 768 262.328 768 267.667L768 306.333C768 311.672 763.672 316 758.333 316L652.667 316C647.328 316 643 311.672 643 306.333L643 267.667C643 262.328 647.328 258 652.667 258Z" fill="#78206E" fill-rule="evenodd"/><path d="M915.333 258C920.672 258 925 262.328 925 267.667L925 306.333C925 311.672 920.672 316 915.333 316L809.667 316C804.328 316 800 311.672 800 306.333L800 267.667C800 262.328 804.328 258 809.667 258Z" fill="#78206E" fill-rule="evenodd"/><path d="M186.667 345 273.333 345C285.299 345 295 354.698 295 366.662L295 596.023 286.842 602.429C278.337 612.267 273.586 625.348 274.605 639.342L284.727 778.369C285.236 785.366 287.14 791.928 290.146 797.804L295 803.981 295 947.339C295 959.302 285.299 969 273.333 969L186.667 969C174.701 969 165 959.302 165 947.339L165 366.662C165 354.698 174.701 345 186.667 345Z" fill="#78206E" fill-rule="evenodd"/><path d="M345.667 345 432.333 345C444.3 345 454 354.698 454 366.662L454 403.634 449.018 406.261C428.834 418.823 410.4 434.31 394.425 452.369L371.315 484.393 370.573 488.437C371.253 491.911 373.222 494.979 376.317 496.818L421.156 523.454C424.252 525.293 427.888 525.554 431.265 524.49L432.609 523.404 449.048 500.623 454 496.441 454 947.339C454 959.302 444.3 969 432.333 969L345.667 969C333.701 969 324 959.302 324 947.339L324 823.351 339.758 825.355 355.075 824.24C383.069 822.203 404.111 797.864 402.073 769.878L391.951 630.85C389.914 602.864 365.569 581.827 337.575 583.864L324 584.852 324 366.662C324 354.698 333.701 345 345.667 345Z" fill="#78206E" fill-rule="evenodd"/><path d="M583.478 441.661C592.067 441.854 600.713 442.687 609.356 444.191L612 444.862 612 850.22 603.466 865.072C599.123 878.152 600.054 892.503 606.05 904.913L612 912.722 612 947.339C612 959.302 602.299 969 590.333 969L503.667 969C491.7 969 482 959.302 482 947.339L482 472.501 487.223 468.09C515.705 450.363 549.124 440.89 583.478 441.661ZM503.667 345 590.333 345C602.299 345 612 354.698 612 366.662L612 371.434 585.092 368.804C560.747 368.257 536.734 371.34 513.761 377.701L482 389.004 482 366.662C482 354.698 491.7 345 503.667 345Z" fill="#78206E" fill-rule="evenodd"/><path d="M770 846.042 770 947.339C770 959.302 760.299 969 748.333 969L661.667 969C649.701 969 640 959.302 640 947.339L640 936.516 644.916 939.339C664.541 945.852 687.026 940.501 701.529 923.991ZM640 453.383 681.598 474.719C723.382 504.893 749.573 552.173 753.457 603.057L752.855 629.223 753.663 632.487C755.714 635.374 758.771 637.359 762.349 637.762L770 638.62 770 736.243 759.278 730.085C739.652 723.572 717.168 728.922 702.664 745.433L640 816.771ZM661.667 345 748.333 345C760.299 345 770 354.698 770 366.662L770 459.251 752.022 438.97C726.228 413.813 694.512 393.92 658.065 381.683L640 377.101 640 366.662C640 354.698 649.701 345 661.667 345Z" fill="#78206E" fill-rule="evenodd"/><path d="M819.667 345 906.333 345C918.3 345 928 354.698 928 366.662L928 947.339C928 959.302 918.3 969 906.333 969L819.667 969C807.7 969 798 959.302 798 947.339L798 809.097 800.727 804.352C805.069 791.271 804.139 776.921 798.142 764.511L798 764.324 798 641.803 813.835 643.581C817.413 643.983 820.835 642.724 823.474 640.365L824.875 637.585 825.796 597.545C823.962 573.506 818.614 550.035 810.106 527.84L798 501.967 798 366.662C798 354.698 807.7 345 819.667 345Z" fill="#78206E" fill-rule="evenodd"/></g></svg>