<svg width="15" height="20" viewBox="0 0 15 20" fill="none" xmlns="http://www.w3.org/2000/svg">
<path d="M0.969231 0C0.712182 2.51345e-05 0.46567 0.100696 0.283909 0.279873C0.102149 0.459049 2.5497e-05 0.702057 0 0.95545V19.0446C2.5497e-05 19.2979 0.102149 19.541 0.283909 19.7201C0.46567 19.8993 0.712182 20 0.969231 20H4.12692C4.38397 20 4.63048 19.8993 4.81224 19.7201C4.99401 19.541 5.09613 19.2979 5.09615 19.0446V0.95545C5.09613 0.702057 4.99401 0.459049 4.81224 0.279873C4.63048 0.100696 4.38397 2.51345e-05 4.12692 0H0.969231ZM10.8731 0C10.616 2.51345e-05 10.3695 0.100696 10.1878 0.279873C10.006 0.459049 9.90387 0.702057 9.90385 0.95545V19.0446C9.90387 19.2979 10.006 19.541 10.1878 19.7201C10.3695 19.8993 10.616 20 10.8731 20H14.0308C14.2878 20 14.5343 19.8993 14.7161 19.7201C14.8979 19.541 15 19.2979 15 19.0446V0.95545C15 0.702057 14.8979 0.459049 14.7161 0.279873C14.5343 0.100696 14.2878 2.51345e-05 14.0308 0H10.8731Z" fill="black"/>
</svg>
