<svg width="20" height="20" viewBox="0 0 20 20" fill="none" xmlns="http://www.w3.org/2000/svg">
<path d="M0 18.0032C0 18.7216 0.306834 19.2921 0.920502 19.7147C1.25908 19.9049 1.61881 20 1.99971 20C2.29597 20 2.59222 19.926 2.88847 19.7781L18.9179 11.7908C19.2353 11.6218 19.4998 11.3788 19.7114 11.0618C19.9231 10.7448 20.0183 10.3856 19.9971 9.98415C19.976 9.58267 19.8807 9.23402 19.7114 8.93819C19.5422 8.64237 19.2776 8.39936 18.9179 8.20919L2.88847 0.22187C2.59222 0.0739571 2.29597 0 1.99971 0C1.63998 0 1.28024 0.0950887 0.920502 0.285263C0.306834 0.686742 0 1.25726 0 1.99683V18.0032Z" fill="black"/>
</svg>
