<svg width="763" height="711" xmlns="http://www.w3.org/2000/svg" xmlns:xlink="http://www.w3.org/1999/xlink" xml:space="preserve" overflow="hidden"><defs><clipPath id="clip0"><rect x="3394" y="250" width="763" height="711"/></clipPath></defs><g clip-path="url(#clip0)" transform="translate(-3394 -250)"><path d="M3515.33 250C3520.67 250 3525 254.328 3525 259.667L3525 298.333C3525 303.672 3520.67 308 3515.33 308L3409.67 308C3404.33 308 3400 303.672 3400 298.333L3400 259.667C3400 254.328 3404.33 250 3409.67 250Z" fill="#0F9ED5" fill-rule="evenodd"/><path d="M3672.33 250C3677.67 250 3682 254.328 3682 259.667L3682 298.333C3682 303.672 3677.67 308 3672.33 308L3566.67 308C3561.33 308 3557 303.672 3557 298.333L3557 259.667C3557 254.328 3561.33 250 3566.67 250Z" fill="#0F9ED5" fill-rule="evenodd"/><path d="M3829.33 250C3834.67 250 3839 254.328 3839 259.667L3839 298.333C3839 303.672 3834.67 308 3829.33 308L3723.67 308C3718.33 308 3714 303.672 3714 298.333L3714 259.667C3714 254.328 3718.33 250 3723.67 250Z" fill="#0F9ED5" fill-rule="evenodd"/><path d="M3987.33 250C3992.67 250 3997 254.328 3997 259.667L3997 298.333C3997 303.672 3992.67 308 3987.33 308L3881.67 308C3876.33 308 3872 303.672 3872 298.333L3872 259.667C3872 254.328 3876.33 250 3881.67 250Z" fill="#0F9ED5" fill-rule="evenodd"/><path d="M4144.33 250C4149.67 250 4154 254.328 4154 259.667L4154 298.333C4154 303.672 4149.67 308 4144.33 308L4038.67 308C4033.33 308 4029 303.672 4029 298.333L4029 259.667C4029 254.328 4033.33 250 4038.67 250Z" fill="#0F9ED5" fill-rule="evenodd"/><path d="M3415.67 337 3502.33 337C3514.3 337 3524 346.698 3524 358.661L3524 588.023 3515.84 594.429C3507.34 604.267 3502.59 617.348 3503.61 631.342L3513.73 770.369C3514.24 777.366 3516.14 783.928 3519.15 789.804L3524 795.981 3524 939.339C3524 951.302 3514.3 961 3502.33 961L3415.67 961C3403.7 961 3394 951.302 3394 939.339L3394 358.661C3394 346.698 3403.7 337 3415.67 337Z" fill="#0F9ED5" fill-rule="evenodd"/><path d="M3573.67 337 3660.33 337C3672.3 337 3682 346.698 3682 358.661L3682 395.634 3677.02 398.261C3656.83 410.823 3638.4 426.31 3622.42 444.369L3599.32 476.393 3598.57 480.437C3599.25 483.911 3601.22 486.979 3604.32 488.818L3649.16 515.454C3652.25 517.292 3655.89 517.554 3659.27 516.49L3660.61 515.404 3677.05 492.623 3682 488.441 3682 939.339C3682 951.302 3672.3 961 3660.33 961L3573.67 961C3561.7 961 3552 951.302 3552 939.339L3552 815.351 3567.76 817.355 3583.07 816.24C3611.07 814.203 3632.11 789.864 3630.07 761.878L3619.95 622.85C3617.91 594.864 3593.57 573.827 3565.57 575.864L3552 576.852 3552 358.661C3552 346.698 3561.7 337 3573.67 337Z" fill="#0F9ED5" fill-rule="evenodd"/><path d="M3812.48 433.661C3821.07 433.853 3829.71 434.687 3838.36 436.191L3841 436.861 3841 842.22 3832.47 857.072C3828.12 870.153 3829.05 884.503 3835.05 896.913L3841 904.722 3841 939.339C3841 951.302 3831.3 961 3819.33 961L3732.67 961C3720.7 961 3711 951.302 3711 939.339L3711 464.501 3716.22 460.09C3744.71 442.363 3778.12 432.89 3812.48 433.661ZM3732.67 337 3819.33 337C3831.3 337 3841 346.698 3841 358.661L3841 363.434 3814.09 360.803C3789.75 360.257 3765.73 363.34 3742.76 369.701L3711 381.004 3711 358.661C3711 346.698 3720.7 337 3732.67 337Z" fill="#0F9ED5" fill-rule="evenodd"/><path d="M3999 838.042 3999 939.339C3999 951.302 3989.3 961 3977.33 961L3890.67 961C3878.7 961 3869 951.302 3869 939.339L3869 928.516 3873.92 931.339C3893.54 937.852 3916.03 932.501 3930.53 915.991ZM3869 445.383 3910.6 466.719C3952.38 496.892 3978.57 544.173 3982.46 595.057L3981.85 621.223 3982.66 624.487C3984.71 627.374 3987.77 629.359 3991.35 629.761L3999 630.62 3999 728.243 3988.28 722.085C3968.65 715.572 3946.17 720.922 3931.66 737.433L3869 808.771ZM3890.67 337 3977.33 337C3989.3 337 3999 346.698 3999 358.661L3999 451.251 3981.02 430.97C3955.23 405.813 3923.51 385.92 3887.06 373.683L3869 369.101 3869 358.661C3869 346.698 3878.7 337 3890.67 337Z" fill="#0F9ED5" fill-rule="evenodd"/><path d="M4048.67 337 4135.33 337C4147.3 337 4157 346.698 4157 358.661L4157 939.339C4157 951.302 4147.3 961 4135.33 961L4048.67 961C4036.7 961 4027 951.302 4027 939.339L4027 801.097 4029.73 796.352C4034.07 783.271 4033.14 768.921 4027.14 756.511L4027 756.324 4027 633.803 4042.83 635.581C4046.41 635.983 4049.83 634.724 4052.47 632.365L4053.87 629.585 4054.8 589.545C4052.96 565.506 4047.61 542.035 4039.11 519.84L4027 493.967 4027 358.661C4027 346.698 4036.7 337 4048.67 337Z" fill="#0F9ED5" fill-rule="evenodd"/></g></svg>