<svg width="861" height="861" xmlns="http://www.w3.org/2000/svg" xmlns:xlink="http://www.w3.org/1999/xlink" xml:space="preserve" overflow="hidden"><defs><clipPath id="clip0"><rect x="2353" y="332" width="861" height="861"/></clipPath></defs><g clip-path="url(#clip0)" transform="translate(-2353 -332)"><path d="M2353 475.503C2353 396.248 2417.25 332 2496.5 332L3070.5 332C3149.75 332 3214 396.248 3214 475.503L3214 1049.5C3214 1128.75 3149.75 1193 3070.5 1193L2496.5 1193C2417.25 1193 2353 1128.75 2353 1049.5Z" fill="#1E98D3" fill-rule="evenodd"/><path d="M2621 682C2623.21 682 2625 683.791 2625 686L2625 702C2625 704.209 2623.21 706 2621 706L2551 706C2548.79 706 2547 704.209 2547 702L2547 686C2547 683.791 2548.79 682 2551 682Z" fill="#FFC000" fill-rule="evenodd"/><path d="M2720 682C2722.21 682 2724 683.791 2724 686L2724 702C2724 704.209 2722.21 706 2720 706L2650 706C2647.79 706 2646 704.209 2646 702L2646 686C2646 683.791 2647.79 682 2650 682Z" fill="#FFC000" fill-rule="evenodd"/><path d="M2819 682C2821.21 682 2823 683.791 2823 686L2823 702C2823 704.209 2821.21 706 2819 706L2749 706C2746.79 706 2745 704.209 2745 702L2745 686C2745 683.791 2746.79 682 2749 682Z" fill="#FFC000" fill-rule="evenodd"/><path d="M2917 682C2919.21 682 2921 683.791 2921 686L2921 702C2921 704.209 2919.21 706 2917 706L2848 706C2845.79 706 2844 704.209 2844 702L2844 686C2844 683.791 2845.79 682 2848 682Z" fill="#FFC000" fill-rule="evenodd"/><path d="M3016 682C3018.21 682 3020 683.791 3020 686L3020 702C3020 704.209 3018.21 706 3016 706L2946 706C2943.79 706 2942 704.209 2942 702L2942 686C2942 683.791 2943.79 682 2946 682Z" fill="#FFC000" fill-rule="evenodd"/><path d="M2554 770.834C2554 764.85 2558.85 760 2564.83 760L2608.17 760C2614.15 760 2619 764.85 2619 770.834L2619 983.167C2619 989.15 2614.15 994 2608.17 994L2564.83 994C2558.85 994 2554 989.15 2554 983.167Z" fill="#83CBEB" fill-rule="evenodd"/><path d="M2652 771C2652 764.925 2656.92 760 2663 760L2707 760C2713.08 760 2718 764.925 2718 771L2718 983C2718 989.075 2713.08 994 2707 994L2663 994C2656.92 994 2652 989.075 2652 983Z" fill="#83CBEB" fill-rule="evenodd"/><path d="M2751 770.834C2751 764.85 2755.85 760 2761.83 760L2805.17 760C2811.15 760 2816 764.85 2816 770.834L2816 983.167C2816 989.15 2811.15 994 2805.17 994L2761.83 994C2755.85 994 2751 989.15 2751 983.167Z" fill="#83CBEB" fill-rule="evenodd"/><path d="M2850 770.834C2850 764.85 2854.85 760 2860.83 760L2904.17 760C2910.15 760 2915 764.85 2915 770.834L2915 983.167C2915 989.15 2910.15 994 2904.17 994L2860.83 994C2854.85 994 2850 989.15 2850 983.167Z" fill="#83CBEB" fill-rule="evenodd"/><path d="M2949 770.834C2949 764.85 2953.85 760 2959.83 760L3003.17 760C3009.15 760 3014 764.85 3014 770.834L3014 983.167C3014 989.15 3009.15 994 3003.17 994L2959.83 994C2953.85 994 2949 989.15 2949 983.167Z" fill="#83CBEB" fill-rule="evenodd"/><path d="M2855.42 620.434C2858.41 620.48 2860.8 622.94 2860.75 625.929L2860.42 647.58C2860.37 650.57 2857.91 652.956 2854.92 652.91L2785.63 651.853C2782.64 651.807 2780.26 649.347 2780.3 646.357L2780.63 624.706C2780.68 621.717 2783.14 619.331 2786.13 619.376Z" fill="#83CBEB" fill-rule="evenodd"/><path d="M0 5.41345C0 2.42368 2.42369-1.91275e-15 5.41346-2.55034e-15L27.0669 0C30.0566-1.27517e-15 32.4803 2.42368 32.4803 5.41345L32.4803 74.7144C32.4803 77.7042 30.0566 80.1279 27.0669 80.1279L5.41346 80.1279C2.42369 80.1279 0 77.7042 0 74.7144Z" fill="#83CBEB" fill-rule="evenodd" transform="matrix(-0.701879 -0.712296 -0.712296 0.701879 2812.63 500.323)"/><path d="M2932.64 521.93C2945.32 553.559 2936.98 588.409 2914.22 610.992L2903.88 619.389 2902.88 619.634C2901.71 619.474 2900.66 618.879 2899.99 617.887L2890.29 603.516C2889.62 602.524 2889.47 601.322 2889.75 600.181L2890.41 599.273 2897.16 593.786C2913.22 577.852 2919.11 553.262 2910.16 530.945 2901.21 508.628 2879.96 494.921 2857.34 494.497L2848.03 495.247 2847.47 495.141C2846.47 494.516 2845.75 493.539 2845.55 492.359L2842.63 475.271C2842.43 474.091 2842.78 472.932 2843.52 472.011L2844.7 471.327 2857.79 470.273C2889.84 470.874 2919.96 490.3 2932.64 521.93Z" fill="#83CBEB" fill-rule="evenodd"/></g></svg>