<svg width="559" height="1264" xmlns="http://www.w3.org/2000/svg" xmlns:xlink="http://www.w3.org/1999/xlink" xml:space="preserve" overflow="hidden">
<defs>
<linearGradient x1="177.807" y1="374.953" x2="277.44" y2="-85.2445" gradientUnits="userSpaceOnUse" spreadMethod="reflect" id="panggulfill0">
<stop offset="0" stop-color="#928F00"/>
<stop offset="0.29" stop-color="#928F00"/>
<stop offset="0.64" stop-color="#DAD500"/>
<stop offset="1" stop-color="#FFFC79"/>
</linearGradient>
<radialGradient cx="39847.5" cy="39847.5" r="56352.9" gradientUnits="userSpaceOnUse" spreadMethod="pad" id="panggulfill1" gradientTransform="matrix(0.000360797 -8.294e-06 8.294e-06 0.000360797 434.495 73.013)">
<stop offset="0" stop-color="#FFFC79"/>
<stop offset="0.57" stop-color="#DED90D"/>
<stop offset="1" stop-color="#DED90D"/>
</radialGradient>
<linearGradient x1="407.679" y1="1264.73" x2="381.588" y2="129.709" gradientUnits="userSpaceOnUse" spreadMethod="reflect" id="panggulfill2">
<stop offset="0" stop-color="#D6C9A6"/>
<stop offset="0.0277778" stop-color="#D6CAA7"/>
<stop offset="1" stop-color="#E7E0CB"/>
</linearGradient>
<linearGradient x1="388.907" y1="1265.99" x2="362.798" y2="130.241" gradientUnits="userSpaceOnUse" spreadMethod="reflect" id="panggulfill3">
<stop offset="0" stop-color="#B1A46B"/>
<stop offset="1" stop-color="#BFB88F"/>
</linearGradient>
</defs>
<g transform="matrix(1 0 0 1 0 1)">
<path d="M34.2888 158.944C5.1118 192.175-1.53125 202.668 0.277534 225.197 2.08633 247.727 12.1141 272.141 45.1419 294.12 78.1698 316.099 111.544 315.825 133.239 312.725 154.934 309.626 175.315 275.522 175.315 275.522L300.434 144.878C342.511 114.978 372.884 113.922 402.36 115.699 431.835 117.477 410.144 117.398 438.531 115.175 466.919 112.952 466.28 74.7814 452.045 55.8252 437.81 36.869 399.241 6.43975 353.124 1.43755 307.006-3.56463 228.479-0.438591 175.34 25.8123 122.201 52.0632 63.4658 125.713 34.2888 158.944Z" fill="url(#panggulfill0)" fill-rule="evenodd"/>
<path d="M434.826 87.3898C434.643 79.4497 440.932 72.865 448.872 72.6825 456.812 72.4999 463.397 78.7887 463.579 86.7288 463.762 94.669 457.473 101.254 449.533 101.436 441.593 101.619 435.008 95.33 434.826 87.3898Z" fill="url(#panggulfill1)" fill-rule="evenodd"/>
<path d="M48.6832 141.14 48.9702 141.322 47.6861 142.861C25.6083 177.738 44.6297 229.381 90.1712 258.21 112.942 272.625 138.032 278.606 160.188 276.625L181.227 270.471 163.619 291.507 145.467 291.492C124.808 289.692 103.072 282.517 82.8769 269.734 55.9509 252.689 36.8648 228.9 27.7737 204.216L22.8172 173.014Z" fill="#C00000" fill-rule="evenodd"/>
<path d="M288.902 131.84 302.75 132.044 308.098 150.427C344.002 260.244 421.229 601.976 462.94 781.185 504.651 960.394 556.529 1159.25 558.366 1225.68 560.202 1292.11 478.947 1261.23 473.958 1179.75 457.365 1171.07 465.461 1199.94 458.804 1173.6 452.145 1147.26 446.165 1106.01 434.01 1021.72 423.788 938.991 431.834 994.917 414.579 885.038 399.292 819.498 369.365 636.32 342.286 628.472 324.264 552.739 264.388 334.326 233.172 196.241L231.331 187.486Z" fill="url(#panggulfill2)" fill-rule="evenodd"/>
<path d="M281.923 132.1 288.944 156.371C324.864 266.868 402.139 610.709 443.876 791.023 485.613 971.338 540.045 1172.45 539.364 1238.26 538.684 1304.06 460.233 1220.95 439.795 1185.84 419.357 1150.74 427.147 1117.84 414.98 1033.03 404.746 949.792 412.8 1006.06 395.53 895.507 380.233 829.562 350.28 645.256 323.201 637.356 305.168 561.155 245.26 341.393 214.025 202.456L213.202 198.524Z" fill="url(#panggulfill3)" fill-rule="evenodd"/>
</g>
</svg>