<svg viewBox="0 0 2500 1300" xmlns="http://www.w3.org/2000/svg" xmlns:xlink="http://www.w3.org/1999/xlink" xml:space="preserve" overflow="hidden">
    <defs>
        <linearGradient x1="206.5" y1="602" x2="0.499836" y2="602" gradientUnits="userSpaceOnUse" spreadMethod="reflect" id="fill0">
            <stop offset="0" stop-color="#4D1900"/>
            <stop offset="0.5" stop-color="#722902"/>
            <stop offset="1" stop-color="#883205"/>
        </linearGradient>
        <linearGradient x1="144.717" y1="598.341" x2="268.283" y2="605.659" gradientUnits="userSpaceOnUse" spreadMethod="reflect" id="fill1">
            <stop offset="0" stop-color="#4D1900"/>
            <stop offset="0.5" stop-color="#722902"/>
            <stop offset="1" stop-color="#883205"/>
        </linearGradient>
        <radialGradient cx="0" cy="473825" r="491397" gradientUnits="userSpaceOnUse" spreadMethod="pad" id="fill2" gradientTransform="matrix(0.000360892 0 0 0.000360892 220 509)">
            <stop offset="0" stop-color="#7F5B00"/>
            <stop offset="0.5" stop-color="#B88600"/>
            <stop offset="1" stop-color="#DBA100"/>
        </radialGradient>
        <linearGradient x1="609.5" y1="280" x2="609.5" y2="0" gradientUnits="userSpaceOnUse" spreadMethod="reflect" id="fill3">
            <stop offset="0" stop-color="#4D1900"/>
            <stop offset="0.5" stop-color="#722902"/>
            <stop offset="1" stop-color="#883205"/>
        </linearGradient>
        <linearGradient x1="-41.1171" y1="603.875" x2="124.117" y2="615.125" gradientUnits="userSpaceOnUse" spreadMethod="reflect" id="fill4">
            <stop offset="0" stop-color="#4D1900"/>
            <stop offset="0.5" stop-color="#722902"/>
            <stop offset="1" stop-color="#883205"/>
        </linearGradient>
        <radialGradient cx="-0.03125" cy="551411" r="580080" fx="0" fy="551411" gradientUnits="userSpaceOnUse" spreadMethod="pad" id="fill5" gradientTransform="scale(0.000360892 0.000360892)">
            <stop offset="0" stop-color="#7F5B00"/>
            <stop offset="0.5" stop-color="#B88600"/>
            <stop offset="1" stop-color="#DBA100"/>
        </radialGradient>
        <radialGradient cx="0.0625" cy="1221971" r="1728128" fx="0" gradientUnits="userSpaceOnUse" spreadMethod="pad" id="fill6" gradientTransform="matrix(0.000360892 0 0 0.000360892 546 627)">
            <stop offset="0" stop-color="#765700"/>
            <stop offset="0.23" stop-color="#C49100"/>
            <stop offset="1" stop-color="#FFC82D"/>
        </radialGradient>
        <radialGradient cx="-0.0625" cy="1077883" r="1518491" fx="0" fy="1077883" gradientUnits="userSpaceOnUse" spreadMethod="pad" id="fill7" gradientTransform="matrix(0.000360892 0 0 0.000360892 573 653)">
            <stop offset="0" stop-color="#B48500"/>
            <stop offset="0.44" stop-color="#E6AA00"/>
            <stop offset="1" stop-color="#F6B600"/>
        </radialGradient>
        <radialGradient cx="-0.03125" cy="703811" r="991428" fx="0" gradientUnits="userSpaceOnUse" spreadMethod="pad" id="fill8" gradientTransform="matrix(0.000360892 0 0 0.000360892 640 721)">
            <stop offset="0" stop-color="#F6B600"/>
            <stop offset="0.55" stop-color="#E6AA00"/>
            <stop offset="1" stop-color="#DEA400"/>
        </radialGradient>
        <linearGradient x1="715" y1="899" x2="817" y2="797" gradientUnits="userSpaceOnUse" spreadMethod="reflect" id="fill9">
            <stop offset="0" stop-color="#7F5B00"/>
            <stop offset="0.4" stop-color="#B88600"/>
            <stop offset="1" stop-color="#FFC319"/>
        </linearGradient>
    </defs>
    <style id="style">
         <!-- 
            The styling enables animation. See file GK_REYONG.svg for an explanation.
         -->
       .target *{
            fill: inherit;
        }
        .GONG-shape {
            fill: url(#fill5);
        }
        .PUR-shape {
            fill: url(#fill2);
        }
        .TONG-shape {
            fill: url(#fill9);
        }
            <!-- The following sections will give control of the highlighting from the javascript application -->
        :root {
            --alpha: 1;
            --color:orange;
        }
        .highlight {
          fill: var(--color);
          opacity: var(--alpha);
        }
    </style>
    <g  id="PUR-shape" class="PUR-shape">
        <path id="kempur-border" class="fixed-item" d="M206.5 78.4998 206.5 1125.5 21.9895 1079.3 21.9895 1078.35 21.8359 1078.69C10.0525 1078.69 0.499836 865.25 0.499836 601.953 0.499836 338.657 10.0525 125.213 21.8359 125.213L21.9895 125.558 21.9895 124.703Z" stroke="#80350E" stroke-width="1.14583" stroke-miterlimit="8" fill="url(#fill0)" fill-rule="evenodd"/>
        <path id="kempur-rim" class="fixed-item" d="M175.5 602C175.5 312.879 189.379 78.4999 206.5 78.4999 223.621 78.4999 237.5 312.879 237.5 602 237.5 891.121 223.621 1125.5 206.5 1125.5 189.379 1125.5 175.5 891.121 175.5 602Z" stroke="#80350E" stroke-width="1.14583" stroke-miterlimit="8" fill="url(#fill1)" fill-rule="evenodd"/>
        <path id="kempur-knob" class="fixed-item" d="M232.7 509 235.533 512.85 235.533 509C251.267 535.25 267 561.5 267 590 267 618.5 251.267 649.25 235.533 680L235.533 676.15 232.7 680C225.686 680 220 641.72 220 594.5 220 547.28 225.686 509 232.7 509Z" fill="url(#fill2)" fill-rule="evenodd"/>
        <path id="PUR" class="highlight-target" d="M232.7 509 235.533 512.85 235.533 509C251.267 535.25 267 561.5 267 590 267 618.5 251.267 649.25 235.533 680L235.533 676.15 232.7 680C225.686 680 220 641.72 220 594.5 220 547.28 225.686 509 232.7 509Z" fill="url(#fill2)" fill-rule="evenodd"/>
    </g>
    <g  id="GONG-shape" class="GONG-shape">
        <path id="gong-border" class="fixed-item" d="M1219 280 0 280 53.793 29.2092 54.8985 29.2092 54.4958 29.0005C54.4958 12.9841 303.004 0 609.555 0 916.105 0 1164.61 12.9841 1164.61 29.0005L1164.21 29.2092 1165.21 29.2092Z" stroke="#80350E" stroke-width="1.14583" stroke-miterlimit="8" fill="url(#fill3)" fill-rule="evenodd" transform="matrix(-6.12323e-17 -1 -1 6.12323e-17 1587.5 1219.5)"/>
        <path id="gong-rim" class="fixed-item" d="M0 609.5C-5.28352e-15 272.883 18.5802-7.75975e-14 41.5001-1.55195e-13 64.42-3.1039e-13 83.0002 272.883 83.0002 609.5 83.0002 946.118 64.42 1219 41.5001 1219 18.5802 1219-2.64176e-14 946.118 0 609.5Z" stroke="#80350E" stroke-width="1.14583" stroke-miterlimit="8" fill="url(#fill4)" fill-rule="evenodd" transform="matrix(-1 0 0 1 1349.5 0.499836)"/>
        <path id="gong-knob" class="fixed-item" d="M17.5644 0 21.4815 4.48012 21.4815 0C43.241 30.5478 65 61.0961 65 94.2628 65 127.429 43.241 163.215 21.4815 199L21.4815 194.52 17.5644 199C7.86409 199 0 154.453 0 99.5 0 44.5475 7.86409 0 17.5644 0Z" fill="url(#fill5)" fill-rule="evenodd" transform="matrix(-1 0 0 1 1289 502)"/>
        <path id="GIR" class="highlight-target" d="M17.5644 0 21.4815 4.48012 21.4815 0C43.241 30.5478 65 61.0961 65 94.2628 65 127.429 43.241 163.215 21.4815 199L21.4815 194.52 17.5644 199C7.86409 199 0 154.453 0 99.5 0 44.5475 7.86409 0 17.5644 0Z" fill="url(#fill5)" fill-rule="evenodd" transform="matrix(-1 0 0 1 1289 502)"/>
    </g>
    <g  id="TONG-shape" class="TONG-shape">
        <path id="tong-outer-border" class="fixed-item" d="M546 847.5C546 725.721 644.721 627 766.5 627 888.279 627 987 725.721 987 847.5 987 969.279 888.279 1068 766.5 1068 644.721 1068 546 969.279 546 847.5Z" fill="url(#fill6)" fill-rule="evenodd"/>
        <path id="tong-inner-border" class="fixed-item" d="M573 847.5C573 740.081 659.409 653 766 653 872.591 653 959 740.081 959 847.5 959 954.919 872.591 1042 766 1042 659.409 1042 573 954.919 573 847.5Z" fill="url(#fill7)" fill-rule="evenodd"/>
        <path id="tong-rim" class="fixed-item" d="M640 848C640 777.86 696.412 721 766 721 835.588 721 892 777.86 892 848 892 918.14 835.588 975 766 975 696.412 975 640 918.14 640 848Z" fill="url(#fill8)" fill-rule="evenodd"/>
        <path id="tong-knob" class="fixed-item" d="M715 848C715 819.834 737.833 797 766 797 794.167 797 817 819.834 817 848 817 876.167 794.167 899 766 899 737.833 899 715 876.167 715 848Z" fill="url(#fill9)" fill-rule="evenodd"/>
        <path id="TONG" class="highlight-target" d="M715 848C715 819.834 737.833 797 766 797 794.167 797 817 819.834 817 848 817 876.167 794.167 899 766 899 737.833 899 715 876.167 715 848Z" fill-rule="evenodd"/>
    </g>
</svg>