<svg width="763" height="711" xmlns="http://www.w3.org/2000/svg" xmlns:xlink="http://www.w3.org/1999/xlink" xml:space="preserve" overflow="hidden"><defs><clipPath id="clip0"><rect x="1284" y="315" width="763" height="711"/></clipPath></defs><g clip-path="url(#clip0)" transform="translate(-1284 -315)"><path d="M1405.33 315C1410.67 315 1415 319.328 1415 324.667L1415 363.333C1415 368.672 1410.67 373 1405.33 373L1299.67 373C1294.33 373 1290 368.672 1290 363.333L1290 324.667C1290 319.328 1294.33 315 1299.67 315Z" fill="#78206E" fill-rule="evenodd"/><path d="M1562.33 315C1567.67 315 1572 319.328 1572 324.667L1572 363.334C1572 368.672 1567.67 373 1562.33 373L1456.67 373C1451.33 373 1447 368.672 1447 363.334L1447 324.667C1447 319.328 1451.33 315 1456.67 315Z" fill="#78206E" fill-rule="evenodd"/><path d="M1719.33 315C1724.67 315 1729 319.328 1729 324.667L1729 363.334C1729 368.672 1724.67 373 1719.33 373L1613.67 373C1608.33 373 1604 368.672 1604 363.334L1604 324.667C1604 319.328 1608.33 315 1613.67 315Z" fill="#78206E" fill-rule="evenodd"/><path d="M1876.33 315C1881.67 315 1886 319.328 1886 324.667L1886 363.334C1886 368.672 1881.67 373 1876.33 373L1770.67 373C1765.33 373 1761 368.672 1761 363.334L1761 324.667C1761 319.328 1765.33 315 1770.67 315Z" fill="#78206E" fill-rule="evenodd"/><path d="M2033.33 315C2038.67 315 2043 319.328 2043 324.667L2043 363.333C2043 368.672 2038.67 373 2033.33 373L1928.67 373C1923.33 373 1919 368.672 1919 363.333L1919 324.667C1919 319.328 1923.33 315 1928.67 315Z" fill="#78206E" fill-rule="evenodd"/><path d="M1305.67 402 1392.33 402C1404.3 402 1414 411.698 1414 423.661L1414 653.023 1405.84 659.429C1397.34 669.267 1392.59 682.348 1393.6 696.342L1403.73 835.369C1404.24 842.366 1406.14 848.928 1409.15 854.804L1414 860.981 1414 1004.34C1414 1016.3 1404.3 1026 1392.33 1026L1305.67 1026C1293.7 1026 1284 1016.3 1284 1004.34L1284 423.661C1284 411.698 1293.7 402 1305.67 402Z" fill="#78206E" fill-rule="evenodd"/><path d="M1463.67 402 1550.33 402C1562.3 402 1572 411.698 1572 423.661L1572 460.634 1567.02 463.261C1546.83 475.823 1528.4 491.31 1512.42 509.369L1489.32 541.393 1488.57 545.437C1489.25 548.911 1491.22 551.979 1494.32 553.818L1539.16 580.454C1542.25 582.292 1545.89 582.554 1549.27 581.49L1550.61 580.404 1567.05 557.623 1572 553.441 1572 1004.34C1572 1016.3 1562.3 1026 1550.33 1026L1463.67 1026C1451.7 1026 1442 1016.3 1442 1004.34L1442 880.351 1457.76 882.355 1473.08 881.24C1501.07 879.203 1522.11 854.864 1520.07 826.878L1509.95 687.85C1507.91 659.864 1483.57 638.827 1455.57 640.864L1442 641.852 1442 423.661C1442 411.698 1451.7 402 1463.67 402Z" fill="#78206E" fill-rule="evenodd"/><path d="M1701.48 498.661C1710.07 498.853 1718.71 499.687 1727.36 501.191L1730 501.861 1730 907.22 1721.47 922.072C1717.12 935.153 1718.05 949.503 1724.05 961.913L1730 969.722 1730 1004.34C1730 1016.3 1720.3 1026 1708.33 1026L1621.67 1026C1609.7 1026 1600 1016.3 1600 1004.34L1600 529.501 1605.22 525.09C1633.71 507.363 1667.12 497.89 1701.48 498.661ZM1621.67 402 1708.33 402C1720.3 402 1730 411.698 1730 423.661L1730 428.434 1703.09 425.803C1678.75 425.257 1654.73 428.34 1631.76 434.701L1600 446.004 1600 423.661C1600 411.698 1609.7 402 1621.67 402Z" fill="#78206E" fill-rule="evenodd"/><path d="M1888 903.042 1888 1004.34C1888 1016.3 1878.3 1026 1866.33 1026L1779.67 1026C1767.7 1026 1758 1016.3 1758 1004.34L1758 993.516 1762.92 996.339C1782.54 1002.85 1805.03 997.501 1819.53 980.991ZM1758 510.382 1799.6 531.719C1841.38 561.892 1867.57 609.173 1871.46 660.057L1870.85 686.223 1871.66 689.487C1873.71 692.374 1876.77 694.359 1880.35 694.761L1888 695.62 1888 793.243 1877.28 787.085C1857.65 780.572 1835.17 785.922 1820.66 802.433L1758 873.771ZM1779.67 402 1866.33 402C1878.3 402 1888 411.698 1888 423.661L1888 516.251 1870.02 495.97C1844.23 470.813 1812.51 450.92 1776.06 438.683L1758 434.101 1758 423.661C1758 411.698 1767.7 402 1779.67 402Z" fill="#78206E" fill-rule="evenodd"/><path d="M1938.67 402 2025.33 402C2037.3 402 2047 411.698 2047 423.661L2047 1004.34C2047 1016.3 2037.3 1026 2025.33 1026L1938.67 1026C1926.7 1026 1917 1016.3 1917 1004.34L1917 866.097 1919.73 861.352C1924.07 848.271 1923.14 833.921 1917.14 821.511L1917 821.324 1917 698.803 1932.83 700.581C1936.41 700.983 1939.83 699.724 1942.47 697.365L1943.87 694.585 1944.8 654.545C1942.96 630.506 1937.61 607.035 1929.11 584.84L1917 558.967 1917 423.661C1917 411.698 1926.7 402 1938.67 402Z" fill="#78206E" fill-rule="evenodd"/></g></svg>